<svg xmlns="http://www.w3.org/2000/svg" fill="none" width="24" height="24" viewBox="0 0 24 24"><g clip-path="url(#clip0_6492_126)">
<path d="M18.6144 19.1686C18.6144 19.0971 18.6277 19.0299 18.6544 18.9673C18.6811 18.9046 18.7174 18.85 18.7631 18.8034C18.8089 18.7567 18.8625 18.72 18.924 18.6932C18.9855 18.6663 19.0515 18.6529 19.1221 18.6529C19.1936 18.6529 19.2606 18.6663 19.323 18.6932C19.3855 18.72 19.4398 18.7567 19.4861 18.8034C19.5323 18.85 19.5688 18.9046 19.5955 18.9673C19.6222 19.0299 19.6355 19.0971 19.6355 19.1686C19.6355 19.2402 19.6222 19.3074 19.5955 19.37C19.5688 19.4326 19.5323 19.4873 19.4861 19.5339C19.4398 19.5805 19.3855 19.6173 19.323 19.6441C19.2606 19.671 19.1936 19.6844 19.1221 19.6844C19.0515 19.6844 18.9855 19.671 18.924 19.6441C18.8625 19.6173 18.8089 19.5805 18.7631 19.5339C18.7174 19.4873 18.6811 19.4326 18.6544 19.37C18.6277 19.3074 18.6144 19.2402 18.6144 19.1686ZM18.7188 19.1686C18.7188 19.228 18.729 19.2831 18.7495 19.334C18.77 19.3848 18.7984 19.4291 18.8346 19.4668C18.8709 19.5045 18.9135 19.5342 18.9626 19.5558C19.0117 19.5775 19.0649 19.5883 19.1221 19.5883C19.1803 19.5883 19.2341 19.5775 19.2837 19.5558C19.3333 19.5342 19.3764 19.5045 19.4131 19.4668C19.4498 19.4291 19.4787 19.3848 19.4997 19.334C19.5206 19.2831 19.5311 19.228 19.5311 19.1686C19.5311 19.1093 19.5206 19.0542 19.4997 19.0033C19.4787 18.9524 19.4498 18.9082 19.4131 18.8705C19.3764 18.8328 19.3333 18.8031 19.2837 18.7815C19.2341 18.7598 19.1803 18.749 19.1221 18.749C19.0649 18.749 19.0117 18.7598 18.9626 18.7815C18.9135 18.8031 18.8709 18.8328 18.8346 18.8705C18.7984 18.9082 18.77 18.9524 18.7495 19.0033C18.729 19.0542 18.7188 19.1093 18.7188 19.1686ZM18.9476 18.9468C18.9476 18.9157 18.9633 18.9002 18.9948 18.9002H19.1564C19.2079 18.9002 19.2489 18.9148 19.2794 18.944C19.3099 18.9732 19.3252 19.0127 19.3252 19.0627C19.3252 19.0834 19.3221 19.1018 19.3159 19.1178C19.3097 19.1338 19.3018 19.1477 19.2923 19.1595C19.2828 19.1712 19.2723 19.1809 19.2608 19.1884C19.2494 19.196 19.2379 19.2011 19.2265 19.204V19.2068C19.2275 19.2077 19.2289 19.2096 19.2308 19.2124C19.2327 19.2143 19.2346 19.2174 19.2365 19.2216C19.2384 19.2259 19.2413 19.2308 19.2451 19.2365L19.3195 19.3792C19.328 19.3952 19.33 19.4082 19.3252 19.418C19.3204 19.4279 19.3099 19.4329 19.2937 19.4329H19.2766C19.2499 19.4329 19.2313 19.4216 19.2208 19.399L19.1378 19.2266H19.0492V19.3877C19.0492 19.4178 19.0344 19.4329 19.0048 19.4329H18.992C18.9624 19.4329 18.9476 19.4178 18.9476 19.3877V18.9468ZM19.135 19.1531C19.1626 19.1531 19.1841 19.1451 19.1993 19.1291C19.2146 19.1131 19.2222 19.0909 19.2222 19.0627C19.2222 19.0353 19.2146 19.0142 19.1993 18.9991C19.1841 18.984 19.1631 18.9765 19.1364 18.9765H19.0492V19.1531H19.135ZM14.9661 19.491C15.1278 19.491 15.2649 19.5113 15.3774 19.552C15.49 19.5928 15.578 19.6303 15.6414 19.6648C15.6953 19.693 15.727 19.7306 15.7365 19.7776C15.746 19.8245 15.7381 19.8747 15.7127 19.9279L15.6651 20.0125C15.6366 20.0689 15.6002 20.1017 15.5558 20.1111C15.5114 20.1205 15.4591 20.1127 15.3988 20.0877C15.3449 20.0626 15.28 20.0368 15.2039 20.0101C15.1278 19.9835 15.039 19.9702 14.9376 19.9702C14.833 19.9702 14.7521 19.9906 14.6951 20.0313C14.638 20.072 14.6095 20.1299 14.6095 20.2051C14.6095 20.2709 14.6388 20.3241 14.6974 20.3649C14.7561 20.4056 14.8306 20.4416 14.9209 20.4729C15.0113 20.5042 15.108 20.5379 15.211 20.5739C15.314 20.61 15.4107 20.6562 15.5011 20.7125C15.5914 20.7689 15.6659 20.841 15.7246 20.9287C15.7832 21.0164 15.8126 21.1276 15.8126 21.2622C15.8126 21.3687 15.7912 21.4666 15.7484 21.5559C15.7056 21.6452 15.6437 21.7227 15.5629 21.7885C15.4821 21.8542 15.3846 21.9059 15.2704 21.9435C15.1563 21.9811 15.0295 21.9999 14.89 21.9999C14.6935 21.9999 14.5278 21.9717 14.3931 21.9153C14.2584 21.8589 14.1545 21.8057 14.0816 21.7556C14.0277 21.7243 13.9976 21.6851 13.9913 21.6381C13.9849 21.5911 13.9992 21.541 14.0341 21.4878L14.0911 21.4032C14.126 21.3531 14.1648 21.3249 14.2076 21.3186C14.2504 21.3124 14.3019 21.3249 14.3622 21.3562C14.4192 21.3875 14.4929 21.4228 14.5833 21.4619C14.6737 21.5011 14.7806 21.5207 14.9043 21.5207C15.0089 21.5207 15.0913 21.4987 15.1516 21.4549C15.2118 21.411 15.2419 21.3515 15.2419 21.2763C15.2419 21.2106 15.2126 21.1581 15.1539 21.1189C15.0953 21.0798 15.0208 21.0438 14.9304 21.0109C14.8401 20.978 14.7434 20.9428 14.6404 20.9052C14.5373 20.8676 14.4406 20.8206 14.3503 20.7642C14.2599 20.7078 14.1854 20.6358 14.1268 20.5481C14.0681 20.4604 14.0388 20.3476 14.0388 20.2098C14.0388 20.0939 14.0634 19.9906 14.1125 19.8997C14.1617 19.8089 14.2282 19.7337 14.3122 19.6742C14.3963 19.6147 14.4945 19.5693 14.6071 19.5379C14.7196 19.5066 14.8393 19.491 14.9661 19.491ZM7.89756 19.491C8.05924 19.491 8.19635 19.5113 8.30889 19.552C8.42144 19.5928 8.50941 19.6303 8.57281 19.6648C8.62671 19.693 8.65841 19.7306 8.66792 19.7776C8.67743 19.8245 8.66951 19.8747 8.64414 19.9279L8.59659 20.0125C8.56806 20.0689 8.5316 20.1017 8.48722 20.1111C8.44284 20.1205 8.39053 20.1127 8.33029 20.0877C8.2764 20.0626 8.21141 20.0368 8.13532 20.0101C8.05924 19.9835 7.97047 19.9702 7.86902 19.9702C7.76441 19.9702 7.68357 19.9906 7.6265 20.0313C7.56944 20.072 7.54091 20.1299 7.54091 20.2051C7.54091 20.2709 7.57023 20.3241 7.62888 20.3649C7.68753 20.4056 7.76203 20.4416 7.85238 20.4729C7.94273 20.5042 8.03942 20.5379 8.14246 20.5739C8.24549 20.61 8.34218 20.6562 8.43253 20.7125C8.52288 20.7689 8.59738 20.841 8.65603 20.9287C8.71468 21.0164 8.74401 21.1276 8.74401 21.2622C8.74401 21.3687 8.72261 21.4666 8.67981 21.5559C8.63701 21.6452 8.57519 21.7227 8.49435 21.7885C8.41351 21.8542 8.31603 21.9059 8.2019 21.9435C8.08777 21.9811 7.96096 21.9999 7.82147 21.9999C7.62492 21.9999 7.45927 21.9717 7.32454 21.9153C7.1898 21.8589 7.08598 21.8057 7.01306 21.7556C6.95917 21.7243 6.92905 21.6851 6.92271 21.6381C6.91637 21.5911 6.93064 21.541 6.96551 21.4878L7.02257 21.4032C7.05745 21.3531 7.09628 21.3249 7.13908 21.3186C7.18188 21.3124 7.23339 21.3249 7.29363 21.3562C7.35069 21.3875 7.4244 21.4228 7.51475 21.4619C7.6051 21.5011 7.7121 21.5207 7.83574 21.5207C7.94035 21.5207 8.02278 21.4987 8.08301 21.4549C8.14325 21.411 8.17337 21.3515 8.17337 21.2763C8.17337 21.2106 8.14404 21.1581 8.08539 21.1189C8.02674 21.0798 7.95224 21.0438 7.86189 21.0109C7.77154 20.978 7.67485 20.9428 7.57181 20.9052C7.46878 20.8676 7.37209 20.8206 7.28174 20.7642C7.19139 20.7078 7.11689 20.6358 7.05824 20.5481C6.99959 20.4604 6.97026 20.3476 6.97026 20.2098C6.97026 20.0939 6.99483 19.9906 7.04397 19.8997C7.09311 19.8089 7.15968 19.7337 7.2437 19.6742C7.32771 19.6147 7.42598 19.5693 7.53853 19.5379C7.65107 19.5066 7.77075 19.491 7.89756 19.491ZM16.5684 18.6077C16.7016 18.6077 16.7681 18.6734 16.7681 18.805V19.7729C16.7681 19.8042 16.7673 19.8316 16.7658 19.8551C16.7642 19.8786 16.7618 19.8997 16.7586 19.9185C16.7554 19.9404 16.7539 19.9592 16.7539 19.9749H16.7634C16.7919 19.9185 16.8323 19.8613 16.8846 19.8034C16.9369 19.7455 16.9988 19.693 17.0701 19.646C17.1414 19.599 17.2223 19.5614 17.3126 19.5332C17.403 19.5051 17.5005 19.491 17.6051 19.491C17.8745 19.491 18.083 19.563 18.2304 19.7071C18.3778 19.8512 18.4515 20.083 18.4515 20.4024V21.7462C18.4515 21.8777 18.3849 21.9435 18.2518 21.9435H18.0473C17.9142 21.9435 17.8476 21.8777 17.8476 21.7462V20.5246C17.8476 20.3774 17.8222 20.2591 17.7715 20.1699C17.7208 20.0806 17.6193 20.036 17.4672 20.036C17.3625 20.036 17.2666 20.0563 17.1795 20.0971C17.0923 20.1378 17.0186 20.1934 16.9583 20.2638C16.8981 20.3343 16.8513 20.4181 16.8181 20.5152C16.7848 20.6123 16.7681 20.7172 16.7681 20.83V21.7462C16.7681 21.8777 16.7016 21.9435 16.5684 21.9435H16.3639C16.2308 21.9435 16.1642 21.8777 16.1642 21.7462V18.805C16.1642 18.6734 16.2308 18.6077 16.3639 18.6077H16.5684ZM13.4089 19.5473C13.5389 19.5473 13.6039 19.6131 13.6039 19.7447V21.7462C13.6039 21.8777 13.5389 21.9435 13.4089 21.9435H13.1997C13.0697 21.9435 13.0047 21.8777 13.0047 21.7462V19.7447C13.0047 19.6131 13.0697 19.5473 13.1997 19.5473H13.4089ZM9.37404 19.5473C9.49451 19.5473 9.56583 19.6053 9.58803 19.7212L9.97796 21.1213C9.98431 21.1558 9.98985 21.1871 9.99461 21.2153C9.99936 21.2435 10.0049 21.2701 10.0113 21.2951C10.0176 21.3233 10.0223 21.35 10.0255 21.375H10.035C10.0382 21.35 10.043 21.3233 10.0493 21.2951C10.0556 21.2701 10.0612 21.2435 10.0659 21.2153C10.0707 21.1871 10.0778 21.1558 10.0873 21.1213L10.4963 19.7212C10.5185 19.6084 10.5914 19.552 10.715 19.552H10.8957C11.013 19.552 11.086 19.6084 11.1145 19.7212L11.5187 21.1213C11.5282 21.1558 11.5353 21.1871 11.5401 21.2153C11.5449 21.2435 11.5504 21.2701 11.5567 21.2951C11.5631 21.3233 11.5678 21.35 11.571 21.375H11.5805C11.5837 21.35 11.5884 21.3233 11.5948 21.2951C11.6011 21.2701 11.6067 21.2435 11.6114 21.2153C11.6162 21.1871 11.6233 21.1558 11.6328 21.1213L12.018 19.7212C12.0465 19.6053 12.1195 19.5473 12.2368 19.5473H12.4555C12.5284 19.5473 12.5791 19.5677 12.6077 19.6084C12.6362 19.6491 12.641 19.7024 12.6219 19.7682L11.999 21.7791C11.9673 21.8887 11.8928 21.9435 11.7755 21.9435H11.4569C11.3364 21.9435 11.2619 21.8871 11.2334 21.7744L10.8672 20.5763C10.8577 20.545 10.8498 20.5136 10.8434 20.4823C10.8371 20.451 10.8308 20.4228 10.8244 20.3977C10.8181 20.3696 10.8133 20.3429 10.8101 20.3179H10.8006C10.7943 20.3429 10.788 20.3696 10.7816 20.3977C10.7753 20.4228 10.7689 20.451 10.7626 20.4823C10.7563 20.5136 10.7483 20.545 10.7388 20.5763L10.3727 21.7744C10.3441 21.8871 10.2712 21.9435 10.1539 21.9435H9.82579C9.71166 21.9435 9.63875 21.8887 9.60705 21.7791L8.97934 19.7682C8.96032 19.7024 8.96587 19.6491 8.99599 19.6084C9.0261 19.5677 9.07603 19.5473 9.14578 19.5473H9.37404Z" fill="currentColor"/>
<path d="M9.25454 16.1047C12.2648 17.5291 15.98 16.8241 18.2244 14.1782C20.8847 11.0421 20.4715 6.36678 17.3015 3.7356L15.1942 6.21992C17.6707 8.27553 17.9935 11.9281 15.9152 14.3782C14.258 16.3318 11.5295 16.9841 9.25454 16.1047Z" fill="currentColor"/>
<path d="M15.7161 2.72187C12.7058 1.29742 8.99065 2.00236 6.74621 4.64829C4.08594 7.78441 4.49914 12.4597 7.6691 15.0909L9.77646 12.6066C7.29993 10.551 6.97713 6.8984 9.05545 4.44829C10.7126 2.49468 13.4411 1.84239 15.7161 2.72187Z" fill="currentColor"/>
</g>
<defs>
<clipPath id="clip0_6492_126">
<rect width="15" height="20" fill="white" transform="translate(4.99268 2)"/>
</clipPath>
</defs></svg>